<?xml version="1.0" standalone="no"?>
<!DOCTYPE svg PUBLIC "-//W3C//DTD SVG 20010904//EN"
 "http://www.w3.org/TR/2001/REC-SVG-20010904/DTD/svg10.dtd">
<svg version="1.0" xmlns="http://www.w3.org/2000/svg"
 width="300.000000pt" height="300.000000pt" viewBox="0 0 300.000000 300.000000"
 preserveAspectRatio="xMidYMid meet">
<metadata>
Created by potrace 1.10, written by Peter Selinger 2001-2011
</metadata>
<g transform="translate(0.000000,300.000000) scale(0.100000,-0.100000)"
fill="#ffffff" stroke="none">
<path d="M1640 2595 c-8 -10 -11 -31 -7 -60 4 -27 3 -45 -3 -45 -6 0 -10 -4
-10 -10 0 -5 6 -7 14 -4 8 3 17 1 21 -5 8 -14 35 -14 35 0 0 5 -4 7 -10 4 -5
-3 -10 -1 -10 5 0 6 -4 9 -9 6 -5 -3 -11 16 -14 42 -4 35 -2 50 9 59 9 6 11
14 6 17 -5 3 -15 -1 -22 -9z"/>
<path d="M1680 2585 c0 -8 2 -15 4 -15 2 0 11 -3 20 -6 11 -4 16 -1 16 11 0
11 -5 15 -16 11 -8 -3 -12 -2 -9 4 3 6 1 10 -4 10 -6 0 -11 -7 -11 -15z"/>
<path d="M1534 2562 c-15 -9 -3 -36 17 -40 21 -3 34 29 17 40 -16 10 -20 10
-34 0z"/>
<path d="M1745 2538 c-13 -20 -17 -21 -25 -8 -8 12 -10 10 -10 -9 0 -16 4 -21
14 -18 8 3 17 -1 20 -9 3 -8 11 -14 17 -14 8 0 8 4 -1 15 -10 12 -10 21 -2 40
14 31 8 32 -13 3z"/>
<path d="M1908 2514 c-6 -48 -2 -54 13 -21 7 17 8 31 1 42 -8 15 -10 11 -14
-21z"/>
<path d="M1874 2522 c-4 -12 -10 -22 -15 -22 -5 0 -9 -4 -9 -9 0 -15 38 0 45
17 3 8 1 20 -5 26 -8 8 -12 4 -16 -12z"/>
<path d="M1953 2520 c3 -11 1 -18 -3 -15 -5 3 -11 1 -15 -5 -4 -6 8 -10 32 -9
21 0 33 3 26 5 -7 3 -9 12 -6 21 4 11 2 14 -5 9 -7 -4 -12 -2 -12 3 0 6 -5 11
-11 11 -6 0 -9 -9 -6 -20z"/>
<path d="M1766 2522 c-2 -4 2 -16 10 -27 13 -18 14 -18 14 8 0 25 -13 36 -24
19z"/>
<path d="M1820 2518 c0 -7 5 -20 10 -28 8 -13 10 -12 10 3 0 9 0 20 1 24 0 4
-4 9 -10 11 -6 2 -11 -2 -11 -10z"/>
<path d="M1530 2500 c0 -5 7 -10 15 -10 8 0 15 5 15 10 0 6 -7 10 -15 10 -8 0
-15 -4 -15 -10z"/>
<path d="M1580 2470 c0 -5 5 -10 11 -10 5 0 7 5 4 10 -3 6 -8 10 -11 10 -2 0
-4 -4 -4 -10z"/>
<path d="M1530 2435 c0 -8 5 -15 10 -15 6 0 10 7 10 15 0 8 -4 15 -10 15 -5 0
-10 -7 -10 -15z"/>
<path d="M1620 2436 c0 -2 7 -9 15 -16 9 -7 15 -8 15 -2 0 5 -7 12 -15 16 -8
3 -15 4 -15 2z"/>
<path d="M1680 2385 c7 -8 17 -15 22 -15 6 0 5 7 -2 15 -7 8 -17 15 -22 15 -6
0 -5 -7 2 -15z"/>
<path d="M2460 2381 c0 -5 6 -11 13 -14 17 -6 37 -73 37 -121 0 -56 -33 -83
-110 -92 -45 -5 -58 -9 -46 -16 9 -5 21 -6 28 -2 6 4 8 3 5 -3 -10 -16 78 -35
121 -27 109 20 148 85 103 172 -24 47 -56 77 -103 97 -43 17 -48 18 -48 6z
m97 -61 c70 -67 76 -142 14 -175 -40 -20 -109 -28 -146 -16 -28 9 -29 9 -5 10
14 1 40 10 58 21 51 32 64 88 38 163 -8 20 -11 37 -7 37 4 0 26 -18 48 -40z"/>
<path d="M1541 2364 c0 -11 3 -14 6 -6 3 7 2 16 -1 19 -3 4 -6 -2 -5 -13z"/>
<path d="M800 2356 c0 -9 -4 -16 -10 -16 -5 0 -10 -5 -10 -11 0 -5 5 -7 10 -4
6 3 10 4 10 0 0 -3 -10 -10 -22 -15 -20 -8 -18 -9 17 -11 22 -1 46 -2 53 -2 6
1 12 -7 12 -17 0 -26 23 -43 39 -27 9 9 14 9 22 -3 8 -11 12 -12 16 -2 2 6 9
10 14 6 5 -3 9 1 9 10 0 9 -8 13 -25 11 -14 -1 -28 2 -31 7 -3 5 -12 1 -20 -9
-12 -17 -13 -16 -14 10 0 16 5 37 10 48 6 11 7 19 2 19 -6 0 -12 -9 -15 -20
-4 -14 -14 -20 -32 -20 -24 0 -27 3 -23 25 3 14 1 28 -3 31 -5 3 -9 -2 -9 -10z"/>
<path d="M1720 2352 c0 -12 19 -26 26 -19 2 2 -2 10 -11 17 -9 8 -15 8 -15 2z"/>
<path d="M893 2326 c-11 -23 -10 -26 5 -27 9 0 27 -2 40 -5 12 -2 22 1 22 6 0
6 -5 10 -10 10 -6 0 -15 10 -20 23 -9 22 -9 22 -10 -3 l-2 -25 -7 24 -6 24
-12 -27z"/>
<path d="M976 2330 c10 -30 10 -58 0 -85 -8 -20 -8 -20 9 0 18 22 15 80 -6 99
-8 8 -9 5 -3 -14z"/>
<path d="M1074 2343 c4 -7 2 -21 -3 -32 -9 -17 -6 -19 24 -23 49 -6 59 4 34
33 -22 24 -22 24 -16 2 3 -16 1 -23 -9 -23 -7 0 -11 6 -8 13 3 8 -3 20 -12 28
-11 9 -15 9 -10 2z"/>
<path d="M1541 2294 c0 -11 3 -14 6 -6 3 7 2 16 -1 19 -3 4 -6 -2 -5 -13z"/>
<path d="M1775 2300 c3 -5 10 -10 16 -10 5 0 9 5 9 10 0 6 -7 10 -16 10 -8 0
-12 -4 -9 -10z"/>
<path d="M1028 2293 c7 -3 16 -2 19 1 4 3 -2 6 -13 5 -11 0 -14 -3 -6 -6z"/>
<path d="M1214 2286 c-13 -6 -21 -19 -21 -36 0 -23 4 -26 34 -26 23 0 32 4 29
13 -3 7 3 17 12 22 9 6 12 11 5 11 -6 0 -18 6 -25 13 -9 8 -19 9 -34 3z m30
-30 c-6 -16 -34 -17 -34 -1 0 17 10 24 25 18 8 -2 12 -10 9 -17z"/>
<path d="M771 2273 c-10 -11 -10 -18 -2 -26 14 -14 23 -4 19 21 -3 18 -5 18
-17 5z"/>
<path d="M800 2265 c0 -8 4 -15 8 -15 5 0 9 7 9 15 0 8 -4 15 -9 15 -4 0 -8
-7 -8 -15z"/>
<path d="M1065 2270 c-11 -17 5 -32 20 -20 10 8 16 7 23 -6 8 -15 10 -15 16 1
8 21 8 20 -26 29 -15 3 -30 2 -33 -4z"/>
<path d="M1820 2270 c0 -6 7 -10 15 -10 8 0 15 2 15 4 0 2 -7 6 -15 10 -8 3
-15 1 -15 -4z"/>
<path d="M1540 2241 c0 -6 5 -13 10 -16 6 -3 10 1 10 9 0 9 -4 16 -10 16 -5 0
-10 -4 -10 -9z"/>
<path d="M1862 2234 c10 -10 20 -15 24 -12 3 4 -5 12 -18 18 -22 12 -22 12 -6
-6z"/>
<path d="M1135 2200 c-3 -5 -2 -10 4 -10 5 0 13 5 16 10 3 6 2 10 -4 10 -5 0
-13 -4 -16 -10z"/>
<path d="M1270 2202 c0 -12 19 -26 26 -19 2 2 -2 10 -11 17 -9 8 -15 8 -15 2z"/>
<path d="M1544 2189 c-3 -6 -1 -16 5 -22 8 -8 11 -5 11 11 0 24 -5 28 -16 11z"/>
<path d="M1905 2190 c3 -5 11 -10 16 -10 6 0 7 5 4 10 -3 6 -11 10 -16 10 -6
0 -7 -4 -4 -10z"/>
<path d="M2020 2187 c0 -24 -21 -37 -43 -26 -26 15 -52 -10 -42 -41 5 -17 13
-21 33 -17 14 3 36 -2 49 -10 21 -14 25 -14 43 2 26 23 25 51 0 67 -11 7 -20
18 -20 25 0 7 -4 13 -10 13 -5 0 -10 -6 -10 -13z m-30 -57 c0 -4 -9 -10 -21
-13 -15 -4 -19 -2 -15 10 3 8 6 19 6 25 0 6 6 6 15 -2 8 -7 15 -16 15 -20z
m77 -3 c-1 -5 -6 -8 -11 -7 -5 1 -12 -4 -16 -10 -4 -7 -13 -9 -19 -6 -11 7
-15 39 -6 48 8 8 55 -15 52 -25z"/>
<path d="M485 2170 c-4 -6 -1 -9 7 -8 7 2 14 -7 16 -19 3 -17 0 -21 -12 -17
-8 3 -18 14 -21 25 -7 20 -25 27 -25 9 0 -5 5 -10 11 -10 6 0 8 -8 5 -18 -5
-15 -1 -19 24 -19 18 0 30 6 30 14 0 7 5 13 10 13 6 0 10 5 10 10 0 6 -7 10
-15 10 -8 0 -15 5 -15 10 0 13 -17 13 -25 0z"/>
<path d="M1085 2170 c-3 -5 -2 -10 4 -10 5 0 13 5 16 10 3 6 2 10 -4 10 -5 0
-13 -4 -16 -10z"/>
<path d="M1310 2152 c0 -12 19 -26 26 -19 2 2 -2 10 -11 17 -9 8 -15 8 -15 2z"/>
<path d="M1034 2135 c-10 -8 -14 -14 -9 -15 15 0 40 18 34 24 -3 3 -14 -1 -25
-9z"/>
<path d="M1551 2114 c0 -11 3 -14 6 -6 3 7 2 16 -1 19 -3 4 -6 -2 -5 -13z"/>
<path d="M550 2116 c0 -2 7 -6 15 -10 8 -3 15 -1 15 4 0 6 -7 10 -15 10 -8 0
-15 -2 -15 -4z"/>
<path d="M984 2105 c-10 -8 -14 -14 -9 -15 15 0 40 18 34 24 -3 3 -14 -1 -25
-9z"/>
<path d="M790 2096 c0 -8 4 -17 9 -20 11 -7 33 18 24 27 -12 12 -33 7 -33 -7z"/>
<path d="M1350 2085 c7 -8 17 -15 22 -15 6 0 5 7 -2 15 -7 8 -17 15 -22 15 -6
0 -5 -7 2 -15z"/>
<path d="M367 2083 c-2 -5 0 -21 4 -38 3 -16 7 -24 8 -17 0 6 8 12 16 12 8 0
15 5 15 11 0 6 -7 9 -15 5 -8 -3 -15 -1 -15 4 0 6 7 10 15 10 8 0 15 5 15 10
0 12 -37 14 -43 3z"/>
<path d="M840 2081 c0 -5 5 -11 12 -13 7 -3 9 -14 4 -31 -5 -23 -12 -27 -41
-27 -40 0 -65 31 -44 56 6 8 7 14 1 14 -5 0 -15 -7 -22 -15 -10 -12 -9 -20 4
-40 18 -27 21 -55 6 -55 -5 0 -10 -7 -10 -15 0 -21 18 -19 23 3 4 15 5 15 6
-1 0 -10 6 -17 13 -15 19 7 21 28 3 28 -30 0 -9 25 21 26 31 0 50 -16 32 -27
-6 -4 -8 -14 -5 -22 9 -23 57 -10 57 15 0 17 -3 18 -14 9 -12 -10 -15 -8 -18
11 -2 13 0 36 4 52 5 18 3 35 -3 43 -13 15 -29 17 -29 4z"/>
<path d="M925 2070 c-8 -13 5 -13 25 0 13 8 13 10 -2 10 -9 0 -20 -4 -23 -10z"/>
<path d="M453 2057 c-3 -5 1 -13 8 -18 8 -4 16 -4 20 3 4 7 8 6 12 -3 3 -8 6
-5 6 8 1 16 -4 21 -20 20 -11 -1 -23 -5 -26 -10z"/>
<path d="M512 2053 c2 -9 10 -17 19 -18 12 -2 15 3 12 16 -6 23 -36 26 -31 2z"/>
<path d="M670 2066 c0 -2 7 -6 15 -10 8 -3 15 -1 15 4 0 6 -7 10 -15 10 -8 0
-15 -2 -15 -4z"/>
<path d="M1550 2050 c0 -11 5 -20 10 -20 6 0 10 9 10 20 0 11 -4 20 -10 20 -5
0 -10 -9 -10 -20z"/>
<path d="M420 2050 c0 -5 5 -10 10 -10 6 0 10 5 10 10 0 6 -4 10 -10 10 -5 0
-10 -4 -10 -10z"/>
<path d="M1400 2031 c0 -5 5 -13 10 -16 6 -3 10 -2 10 4 0 5 -4 13 -10 16 -5
3 -10 2 -10 -4z"/>
<path d="M1562 1970 c0 -14 2 -19 5 -12 2 6 2 18 0 25 -3 6 -5 1 -5 -13z"/>
<path d="M1440 1971 c0 -5 5 -13 10 -16 6 -3 10 -2 10 4 0 5 -4 13 -10 16 -5
3 -10 2 -10 -4z"/>
<path d="M2317 1934 c-7 -8 4 -44 14 -44 12 0 12 37 0 44 -4 3 -11 3 -14 0z"/>
<path d="M1480 1915 c7 -9 15 -13 17 -11 7 7 -7 26 -19 26 -6 0 -6 -6 2 -15z"/>
<path d="M1561 1884 c0 -11 3 -14 6 -6 3 7 2 16 -1 19 -3 4 -6 -2 -5 -13z"/>
<path d="M2250 1892 c0 -5 7 -16 16 -23 14 -12 16 -11 13 5 -4 20 -29 35 -29
18z"/>
<path d="M2395 1874 c-18 -14 -18 -14 2 -14 23 0 39 15 26 23 -5 3 -17 -1 -28
-9z"/>
<path d="M1512 1868 c2 -6 10 -14 16 -16 7 -2 10 2 6 12 -7 18 -28 22 -22 4z"/>
<path d="M1660 1854 c0 -8 -4 -14 -10 -14 -15 0 -12 -27 4 -33 10 -4 16 3 19
21 4 25 4 25 6 -5 1 -27 -3 -32 -26 -36 -16 -2 12 -4 61 -4 69 -1 86 2 75 11
-8 7 -13 24 -11 44 2 23 -1 32 -12 32 -12 0 -14 -7 -10 -30 5 -25 3 -31 -17
-39 -13 -4 -30 -6 -36 -4 -15 6 -18 53 -3 53 6 0 10 -9 10 -21 0 -23 23 -21
28 3 2 11 -10 19 -38 26 -32 8 -40 7 -40 -4z"/>
<path d="M1982 1839 c4 -27 -6 -41 -14 -19 -2 6 -20 11 -41 12 -27 1 -36 5
-33 15 3 7 1 13 -4 13 -6 0 -10 -6 -10 -12 0 -9 -4 -8 -10 2 -6 9 -10 10 -10
3 0 -28 14 -43 44 -44 29 -2 28 -2 -9 -9 -23 -4 4 -6 64 -4 57 2 106 6 109 9
3 3 0 5 -6 5 -7 0 -9 10 -6 29 6 28 5 28 -36 28 -40 0 -42 -1 -38 -28z m38
-19 c5 0 11 10 13 23 4 18 5 17 6 -6 1 -22 -3 -28 -16 -25 -10 2 -18 12 -19
23 -1 15 0 16 3 3 3 -10 8 -18 13 -18z"/>
<path d="M2306 1808 c-8 -29 -19 -73 -25 -97 -11 -53 -34 -78 -87 -96 -34 -11
-40 -18 -45 -50 -3 -20 -17 -47 -30 -61 -22 -21 -35 -24 -154 -30 -71 -4 -137
-10 -145 -15 -18 -10 66 -10 192 -1 98 8 130 27 149 91 9 29 21 41 62 61 56
28 67 47 87 152 8 37 17 65 21 63 3 -3 10 -48 14 -101 4 -59 14 -113 26 -140
l20 -43 67 -3 67 -3 5 -44 c5 -43 6 -45 50 -55 l45 -11 5 -138 c5 -145 10
-158 55 -156 17 1 15 3 -6 12 -32 12 -39 48 -39 198 l0 98 -42 8 c-41 8 -43
11 -48 48 -6 48 -33 65 -102 65 -42 0 -49 3 -61 28 -8 15 -19 75 -25 133 -17
156 -30 177 -56 87z"/>
<path d="M1566 1829 c3 -5 -5 -9 -16 -9 -16 0 -20 -4 -16 -16 3 -9 6 -20 6
-25 0 -5 5 -9 11 -9 5 0 8 4 5 8 -2 4 4 8 14 8 10 0 16 -4 14 -8 -3 -4 0 -8 5
-8 6 0 11 4 11 9 0 5 2 15 5 23 3 7 -6 18 -20 25 -14 6 -23 7 -19 2z"/>
<path d="M1810 1790 c0 -5 5 -10 10 -10 6 0 10 5 10 10 0 6 -4 10 -10 10 -5 0
-10 -4 -10 -10z"/>
<path d="M891 1773 c-5 -10 -14 -38 -21 -63 -13 -48 -39 -79 -83 -98 -28 -12
-28 -13 -25 -91 l3 -79 -82 -7 c-46 -4 -83 -10 -83 -14 0 -7 145 -3 168 4 8 3
12 30 12 89 0 81 1 84 25 90 40 10 62 40 82 108 l17 63 11 -49 c6 -27 17 -52
24 -54 7 -2 16 -14 21 -27 6 -16 19 -24 48 -28 l39 -7 7 -92 c3 -51 10 -96 16
-102 6 -6 8 25 4 90 -7 108 -13 119 -71 130 -18 3 -33 12 -33 20 0 7 -9 18
-20 24 -12 7 -20 21 -20 38 0 62 -20 90 -39 55z"/>
<path d="M1984 1776 c-8 -20 -1 -48 10 -44 12 4 15 48 4 54 -5 3 -11 -2 -14
-10z"/>
<path d="M2047 1760 c3 -11 0 -20 -6 -20 -6 0 -11 7 -11 15 0 8 -4 15 -10 15
-16 0 -11 -27 6 -34 26 -10 31 -7 36 19 4 16 1 25 -7 25 -8 0 -11 -8 -8 -20z"/>
<path d="M1673 1755 c-17 -19 -16 -35 2 -35 9 0 15 9 15 25 0 29 -1 29 -17 10z"/>
<path d="M1700 1751 c0 -11 5 -23 12 -27 8 -5 9 -2 5 9 -3 10 -2 17 4 17 6 0
7 5 4 10 -10 17 -25 11 -25 -9z"/>
<path d="M1870 1752 c0 -14 8 -18 35 -19 19 -1 35 3 35 8 0 8 -15 13 -32 10
-5 0 -8 4 -8 9 0 6 -7 10 -15 10 -8 0 -15 -8 -15 -18z"/>
<path d="M1950 1760 c0 -5 5 -10 10 -10 6 0 10 5 10 10 0 6 -4 10 -10 10 -5 0
-10 -4 -10 -10z"/>
<path d="M302 1663 c-5 -10 -12 -128 -15 -263 -6 -209 -4 -249 9 -270 l15 -25
-7 25 c-8 29 -8 82 1 338 l7 192 118 0 c84 0 121 -4 128 -13 7 -8 12 -106 14
-269 3 -219 8 -288 21 -267 1 2 0 124 -3 271 -4 200 -8 270 -18 280 -9 9 -52
14 -137 16 -111 3 -124 2 -133 -15z"/>
<path d="M810 1579 c0 -4 23 -14 50 -22 46 -14 55 -13 90 1 22 10 40 21 40 26
0 4 -8 5 -17 1 -67 -28 -70 -28 -117 -13 -25 8 -46 12 -46 7z"/>
<path d="M360 1550 c0 -25 4 -30 25 -30 21 0 25 5 25 30 0 25 -4 30 -25 30
-21 0 -25 -5 -25 -30z"/>
<path d="M450 1551 c0 -24 5 -29 30 -33 20 -3 30 0 30 8 0 7 3 19 6 28 8 21
-25 34 -37 15 -6 -10 -9 -10 -9 -1 0 6 -4 12 -10 12 -5 0 -10 -13 -10 -29z"/>
<path d="M988 1544 c-15 -8 -31 -26 -34 -40 -8 -30 2 -42 18 -26 7 7 20 12 30
12 14 0 18 8 18 35 0 19 -1 35 -2 35 -2 -1 -15 -7 -30 -16z m22 -7 c0 -2 -12
-14 -27 -28 l-28 -24 24 28 c23 25 31 32 31 24z"/>
<path d="M800 1521 c0 -23 6 -30 34 -38 32 -10 35 -9 41 14 7 31 6 33 -39 43
-34 8 -36 7 -36 -19z m44 -6 c-4 -8 -11 -12 -16 -9 -6 4 -5 10 3 15 19 12 19
11 13 -6z"/>
<path d="M910 1477 c0 -31 4 -58 9 -62 6 -3 7 18 4 52 -8 76 -13 80 -13 10z"/>
<path d="M360 1398 c0 -23 4 -28 24 -28 17 0 25 7 28 24 4 20 0 25 -24 28 -25
4 -28 2 -28 -24z"/>
<path d="M452 1393 c2 -22 9 -29 29 -31 21 -3 27 2 31 22 6 32 2 36 -34 36
-26 0 -29 -3 -26 -27z"/>
<path d="M1030 1370 l-305 -5 -3 -119 c-2 -79 1 -123 9 -130 8 -8 10 21 7 111
l-3 122 255 3 c140 2 532 3 870 3 l615 0 3 -123 c3 -157 22 -154 22 3 0 90 -3
117 -16 129 -14 14 -78 16 -582 14 -312 -2 -704 -5 -872 -8z"/>
<path d="M808 1219 c-2 -50 0 -93 5 -96 4 -2 7 34 7 81 0 47 3 87 8 89 4 3 71
2 150 -1 l142 -5 0 -83 c0 -46 3 -84 8 -84 10 0 9 162 -1 178 -6 9 -50 12
-162 12 l-154 0 -3 -91z"/>
<path d="M1314 1291 c-10 -10 -3 -171 7 -171 7 0 9 27 7 80 l-3 79 203 3 c111
2 207 2 212 0 6 -2 10 -43 10 -93 0 -53 4 -89 10 -89 16 0 13 189 -2 192 -24
4 -439 3 -444 -1z"/>
<path d="M1217 1204 c2 -116 13 -121 13 -6 0 51 -3 92 -7 92 -5 0 -7 -39 -6
-86z"/>
<path d="M350 1251 c0 -24 5 -29 29 -33 25 -4 30 -1 34 21 7 31 -8 50 -25 33
-7 -7 -17 -12 -22 -12 -6 0 -4 5 4 10 13 8 12 10 -2 10 -13 0 -18 -8 -18 -29z"/>
<path d="M2004 1267 c-3 -8 -3 -47 -1 -88 l3 -74 2 76 2 76 172 5 c94 3 180 3
189 1 16 -5 18 -15 14 -87 -4 -71 -3 -75 5 -36 6 25 9 65 8 90 l-3 45 -193 3
c-155 2 -193 0 -198 -11z"/>
<path d="M450 1241 c0 -28 3 -31 31 -31 27 0 30 3 27 28 -2 21 -9 28 -30 30
-25 3 -28 0 -28 -27z"/>
<path d="M1908 1194 c-2 -42 0 -78 5 -81 4 -2 7 32 7 76 0 45 -2 81 -4 81 -3
0 -6 -34 -8 -76z"/>
<path d="M1070 1201 c0 -6 5 -13 10 -16 6 -3 10 1 10 9 0 9 -4 16 -10 16 -5 0
-10 -4 -10 -9z"/>
<path d="M1685 1189 c-10 -15 3 -25 16 -12 7 7 7 13 1 17 -6 3 -14 1 -17 -5z"/>
<path d="M2325 1181 c-7 -12 12 -24 25 -16 11 7 4 25 -10 25 -5 0 -11 -4 -15
-9z"/>
<path d="M373 955 c-17 -7 -39 -27 -48 -44 l-16 -31 52 -55 c62 -66 62 -91 -1
-82 -40 5 -55 -5 -24 -17 45 -17 119 3 129 35 8 24 -9 54 -56 99 -22 20 -39
46 -39 58 0 23 29 37 60 27 11 -4 20 -2 20 4 0 6 -4 11 -9 11 -5 0 -15 2 -23
5 -7 2 -27 -2 -45 -10z m38 -112 c55 -58 59 -75 27 -97 -28 -20 -44 -21 -28
-1 17 21 4 50 -41 85 -40 33 -50 65 -26 89 10 10 13 9 16 -6 2 -10 25 -41 52
-70z"/>
<path d="M515 948 c-21 -19 -29 -35 -32 -75 -6 -55 9 -114 33 -134 8 -7 32
-14 53 -16 36 -3 40 -1 49 26 6 17 7 33 2 36 -4 3 -13 -9 -19 -26 -12 -35 -24
-31 -48 14 -36 71 -12 203 31 167 9 -7 16 -19 16 -26 0 -8 5 -14 10 -14 14 0
12 22 -3 42 -23 30 -61 32 -92 6z m19 -23 c-19 -46 -18 -85 5 -145 21 -55 11
-62 -23 -17 -11 15 -21 48 -24 80 -4 46 -1 57 23 85 34 41 37 40 19 -3z"/>
<path d="M1130 942 c-48 -48 -52 -141 -9 -197 17 -21 28 -25 57 -23 28 2 40
10 55 36 11 19 14 32 8 32 -6 0 -17 -11 -23 -25 -16 -35 -37 -31 -54 12 -14
33 -15 77 -2 164 3 19 27 14 45 -10 11 -14 12 -14 13 1 0 17 -28 38 -50 38 -6
0 -24 -13 -40 -28z m18 -23 c-15 -44 -6 -144 17 -169 28 -31 -6 -26 -36 6 -19
21 -24 36 -23 82 0 38 6 66 18 85 24 36 38 34 24 -4z"/>
<path d="M1657 964 c-4 -4 -7 -60 -7 -125 0 -102 2 -118 18 -124 14 -5 15 -4
5 6 -9 9 -13 49 -13 126 0 94 3 113 15 113 12 0 15 -15 15 -74 0 -40 3 -94 6
-120 7 -45 8 -46 41 -46 22 0 32 4 27 11 -3 6 -17 8 -29 5 -25 -6 -23 -18 -38
194 -2 33 -23 51 -40 34z"/>
<path d="M1756 961 c-4 -6 7 -45 23 -88 16 -43 32 -95 36 -115 5 -32 10 -38
30 -38 24 0 25 3 25 58 0 33 9 85 20 117 23 67 23 65 11 65 -5 0 -17 -27 -27
-59 l-19 -60 -30 62 c-28 58 -55 81 -69 58z m67 -75 c25 -49 37 -88 37 -115 0
-56 -26 -56 -35 0 -4 23 -17 64 -30 93 -34 79 -39 96 -22 96 8 0 30 -33 50
-74z"/>
<path d="M2246 961 c-4 -5 -1 -11 4 -13 7 -2 12 -48 13 -116 l2 -112 40 0 c32
1 37 3 23 11 -15 8 -18 25 -18 109 0 57 -4 102 -10 105 -10 6 -5 -169 6 -202
2 -7 -3 -13 -11 -13 -11 0 -14 24 -17 115 l-3 116 28 -7 c16 -3 27 -1 27 5 0
13 -76 15 -84 2z"/>
<path d="M2564 957 c-2 -7 -3 -65 -2 -128 3 -109 4 -114 25 -117 67 -10 127
81 104 157 -19 66 -111 129 -127 88z m37 -29 c1 -25 3 -27 6 -10 6 30 22 24
51 -19 19 -27 23 -43 19 -77 -4 -40 -29 -82 -48 -82 -5 0 -10 33 -12 73 -3 71
-4 71 -3 -11 1 -72 -1 -82 -16 -82 -16 0 -18 11 -18 98 0 53 -3 107 -6 120 -5
16 -2 22 10 22 11 0 16 -10 17 -32z"/>
<path d="M649 951 c21 -13 29 -210 10 -222 -9 -6 3 -9 36 -9 28 0 45 4 39 8
-6 4 -14 51 -18 105 -7 89 -5 100 11 113 16 12 12 13 -37 14 -36 0 -50 -3 -41
-9z m51 -65 c0 -35 3 -84 6 -110 6 -38 4 -46 -10 -46 -14 0 -16 14 -16 94 0
52 -3 101 -6 110 -4 11 -1 16 10 16 13 0 16 -12 16 -64z"/>
<path d="M767 953 c-4 -3 -7 -57 -7 -119 l0 -112 58 -4 c31 -2 61 -1 66 4 6 4
-7 8 -27 8 -36 0 -37 1 -37 35 0 32 2 35 31 35 19 0 28 4 23 11 -3 6 -17 9
-30 6 -23 -4 -24 -2 -24 59 l0 64 29 0 c17 0 33 5 36 10 7 11 -107 14 -118 3z
m43 -113 c0 -91 -3 -110 -15 -110 -12 0 -15 19 -15 110 0 91 3 110 15 110 12
0 15 -19 15 -110z"/>
<path d="M917 953 c-9 -8 -9 -78 0 -165 6 -67 6 -68 36 -68 l30 0 -6 91 -6 92
36 -76 c20 -42 40 -74 44 -71 5 3 6 -1 3 -9 -3 -8 0 -18 7 -23 9 -5 11 2 6 32
-4 21 -7 76 -7 122 0 59 -3 81 -11 76 -8 -4 -10 -35 -7 -90 2 -46 3 -84 2 -84
-1 0 -19 41 -40 90 -31 73 -42 90 -59 90 -12 0 -25 -3 -28 -7z m43 -52 c0 -26
3 -76 6 -110 6 -56 5 -61 -13 -61 -18 0 -21 9 -26 101 -7 107 -5 119 19 119
10 0 14 -13 14 -49z"/>
<path d="M1272 843 l3 -118 50 -1 c28 -1 38 0 23 3 -24 4 -28 9 -28 38 0 26 3
33 15 29 8 -4 15 -1 15 5 0 6 -7 11 -15 11 -12 0 -15 14 -15 65 0 63 1 65 25
65 14 0 25 5 25 10 0 6 -23 10 -50 10 l-51 0 3 -117z m40 35 c4 -105 -1 -148
-18 -148 -11 0 -14 21 -14 110 0 88 3 110 14 110 11 0 15 -18 18 -72z"/>
<path d="M1529 928 c-33 -46 -38 -126 -9 -172 25 -42 57 -47 86 -15 15 17 19
37 19 104 0 89 -11 115 -51 115 -14 0 -31 -12 -45 -32z m46 5 c-15 -37 -14
-56 1 -23 15 32 17 33 27 15 16 -27 14 -135 -2 -164 -19 -34 -35 -13 -42 57
l-6 57 -2 -48 c0 -27 4 -57 10 -69 15 -27 3 -35 -21 -13 -39 35 -38 129 1 179
23 30 45 35 34 9z"/>
<path d="M1932 838 l3 -123 28 -3 c25 -3 27 -1 26 30 -2 30 -2 31 -6 6 -2 -16
-10 -28 -17 -28 -9 0 -15 24 -20 77 -10 121 -8 153 9 153 17 0 17 0 17 -100 0
-73 0 -73 7 -20 l6 55 13 -43 c7 -24 16 -41 20 -37 3 3 14 29 23 58 l16 52 8
-102 c4 -58 12 -103 18 -103 6 0 7 20 3 53 -3 28 -6 80 -6 115 0 46 -3 61 -12
56 -8 -5 -9 -1 -4 12 5 13 4 16 -3 9 -6 -6 -19 -35 -29 -64 l-18 -54 -19 62
c-16 53 -21 61 -42 61 l-24 0 3 -122z"/>
<path d="M2114 947 c-2 -7 -3 -62 -2 -123 3 -104 4 -109 26 -112 20 -3 22 1
22 43 0 38 5 50 27 69 36 31 38 90 4 117 -27 22 -69 25 -77 6z m36 -112 c0
-63 -4 -115 -9 -115 -11 0 -21 76 -21 161 0 55 3 69 15 69 12 0 15 -19 15
-115z m34 89 c22 -21 20 -57 -4 -85 l-19 -24 -1 63 c0 34 2 62 4 62 3 0 12 -7
20 -16z"/>
<path d="M2440 925 c-7 -20 -10 -39 -7 -41 3 -3 10 11 17 30 6 21 18 36 27 36
10 0 13 -5 8 -17 -4 -10 -23 -60 -42 -110 -21 -54 -41 -93 -49 -93 -11 0 -8
16 11 67 33 86 26 92 -8 8 -33 -80 -33 -85 -4 -85 19 0 26 8 36 41 11 37 15
40 44 37 27 -3 33 -8 40 -40 5 -21 13 -38 19 -38 5 0 7 8 3 19 -3 10 -13 63
-23 117 -16 86 -21 99 -39 102 -16 2 -24 -5 -33 -33z m54 -67 c7 -47 7 -48
-19 -48 -18 0 -25 4 -22 13 2 6 10 29 18 49 7 21 14 36 15 35 1 -1 5 -23 8
-49z"/>
<path d="M1152 618 c-17 -17 -15 -31 3 -24 20 7 19 -16 0 -54 l-16 -30 36 0
c20 0 34 4 31 9 -3 5 -15 7 -27 4 -21 -6 -21 -5 -4 26 26 50 9 101 -23 69z"/>
<path d="M1350 566 c0 -36 5 -68 10 -71 6 -4 10 18 10 59 0 36 -4 68 -10 71
-6 4 -10 -18 -10 -59z"/>
<path d="M1494 608 c-19 -20 -19 -21 4 -14 27 9 27 6 3 -44 -10 -21 -16 -41
-13 -44 9 -10 50 -7 57 4 3 6 -4 10 -15 10 -17 0 -20 4 -15 18 13 29 17 79 7
86 -5 3 -18 -4 -28 -16z"/>
<path d="M1646 614 c-21 -20 -21 -41 -1 -24 12 10 15 9 15 -6 -1 -11 -7 -30
-15 -44 -8 -14 -14 -28 -15 -32 0 -12 58 -10 65 2 3 6 -5 10 -19 10 -24 0 -24
1 -10 28 27 51 12 99 -20 66z"/>
<path d="M1726 614 c-20 -20 -20 -28 -1 -20 19 7 20 -16 0 -53 -8 -16 -11 -31
-8 -35 10 -10 51 -7 58 4 3 6 -4 10 -15 10 -17 0 -20 4 -15 18 14 30 17 79 7
86 -6 3 -18 -1 -26 -10z"/>
<path d="M1220 594 c-14 -35 -13 -46 6 -72 31 -45 57 11 34 72 -5 14 -14 26
-20 26 -6 0 -15 -12 -20 -26z m30 -35 c0 -24 -4 -38 -10 -34 -17 10 -11 75 7
75 2 0 3 -18 3 -41z"/>
<path d="M1294 609 c-3 -6 -1 -15 5 -19 10 -5 9 -16 -3 -43 -14 -34 -14 -36 6
-43 11 -3 25 -1 31 5 8 8 4 11 -13 11 -19 0 -21 3 -12 12 14 14 16 74 3 83 -5
3 -13 0 -17 -6z"/>
<path d="M1567 613 c-13 -12 -7 -90 8 -103 21 -17 35 -3 35 36 0 52 -23 88
-43 67z m25 -85 c-8 -8 -13 -3 -17 15 -10 38 6 58 18 23 6 -18 6 -31 -1 -38z"/>
<path d="M1410 570 c0 -5 9 -10 19 -10 11 0 23 5 26 10 4 6 -5 10 -19 10 -14
0 -26 -4 -26 -10z"/>
</g>
</svg>
