<svg width="43" height="24" viewBox="0 0 43 24" fill="none" xmlns="http://www.w3.org/2000/svg">
<path d="M32.7905 20C32.5896 20 32.3886 19.9179 32.23 19.7419C31.9233 19.4017 31.9233 18.8385 32.23 18.4983L38.0886 11.9985L32.23 5.49881C31.9233 5.15857 31.9233 4.59542 32.23 4.25518C32.5367 3.91494 33.0443 3.91494 33.351 4.25518L39.77 11.3767C40.0767 11.717 40.0767 12.2801 39.77 12.6203L33.351 19.7419C33.1923 19.9179 32.9914 20 32.7905 20Z" fill="#f28d35"/>
<path d="M38.3633 13H1.63666C0.741953 13 0 12.5467 0 12C0 11.4533 0.741953 11 1.63666 11H38.3633C39.258 11 40 11.4533 40 12C40 12.5467 39.258 13 38.3633 13Z" fill="#f28d35"/>
</svg>
