<?xml version="1.0" encoding="utf-8"?>
<!-- Generator: Adobe Illustrator 25.2.0, SVG Export Plug-In . SVG Version: 6.00 Build 0)  -->
<svg version="1.1" id="Layer_1" xmlns="http://www.w3.org/2000/svg" xmlns:xlink="http://www.w3.org/1999/xlink" x="0px" y="0px"
	 viewBox="0 0 1920 1080" style="enable-background:new 0 0 1920 1080;" xml:space="preserve">
<style type="text/css">
	.st0{fill:#F6CA17;}
	.st1{fill:none;stroke:#000000;stroke-miterlimit:10;}
	.st2{fill:none;}
</style>
<g id="XMLID_2_">
	<g>
		<path class="st0" d="M1945.45,698.67c0.38,7.45,0.78,14.9,1.24,22.35c-39.25,42.12-96.2,61.42-166.19,117.53
			c-121,97-57,245-57,245l-412.03,2.95c111.65-29.85,254.71-98.73,305.03-132.95c75-51,11-170-4-202s84-249,194-209
			c45.81,16.66,90.75-7.96,126.23-29c-2.44,24.93,0.8,50.41,4.01,75.19C1941.47,625.27,1943.55,661.9,1945.45,698.67z"/>
	</g>
	<g>
		<path class="st1" d="M1945.45,698.67c-1.9-36.77-3.98-73.4-8.71-109.93c-3.21-24.78-6.45-50.26-4.01-75.19
			c-35.48,21.04-80.42,45.66-126.23,29c-110-40-209,177-194,209s79,151,4,202c-50.32,34.22-193.38,103.1-305.03,132.95l412.03-2.95
			c0,0-64-148,57-245c69.99-56.11,126.94-75.41,166.19-117.53C1946.23,713.57,1945.83,706.12,1945.45,698.67z"/>
	</g>
</g>
<g id="XMLID_1_">
	<g>
		<path class="st0" d="M1972.25,180.16c0.18,0.75,0.37,1.5,0.56,2.24c-10.47,1.45-21.89,3.15-34.31,5.1c-70,11-45,107-120,218
			s-238,50-340.5,106.66c-102.5,56.66-40.5,201.34-39.5,322.34c0.95,115.28-267.67,231.46-227.36,275.92l-151.64,1.08
			c0,0,141-40,197-245s-67-160-62-295s208-101,296-130s78-162,73-294c-2.83-74.68,120.46-120.87,232.96-146.73
			c22.58-1.47,45.37-0.95,67.9-0.44c18.49,0.42,36.99,0.43,55.48,0.76c9.41,0.17,18.88,0.58,28.18,2.05
			c5.93,0.93,14.86,1.62,18.68,7.06c2.92,4.15,2.26,10.21,1.89,14.96c-0.54,7.04-1.5,14.01-1.66,21.08
			c-0.42,17.83-1.23,35.65-1.41,53.49c-0.2,18.43,0.21,36.92,2.43,55.23C1968.97,163.43,1970.32,171.85,1972.25,180.16z"/>
	</g>
	<g>
		<path class="st1" d="M1972.25,180.16c-1.93-8.31-3.28-16.73-4.3-25.2c-2.22-18.31-2.63-36.8-2.43-55.23
			c0.18-17.84,0.99-35.66,1.41-53.49c0.16-7.07,1.12-14.04,1.66-21.08c0.37-4.75,1.03-10.81-1.89-14.96
			c-3.82-5.44-12.75-6.13-18.68-7.06c-9.3-1.47-18.77-1.88-28.18-2.05c-18.49-0.33-36.99-0.34-55.48-0.76
			c-22.53-0.51-45.32-1.03-67.9,0.44c-112.5,25.86-235.79,72.05-232.96,146.73c5,132,15,265-73,294s-291-5-296,130s118,90,62,295
			s-197,245-197,245l151.64-1.08c-40.31-44.46,228.31-160.64,227.36-275.92c-1-121-63-265.68,39.5-322.34
			c102.5-56.66,265.5,4.34,340.5-106.66s50-207,120-218c12.42-1.95,23.84-3.65,34.31-5.1
			C1972.62,181.66,1972.43,180.91,1972.25,180.16z"/>
	</g>
</g>
<path class="st2" d="M1428.5-29.5"/>
<path class="st1" d="M1597-20"/>
<g id="XMLID_3_">
	<g>
	</g>
	<g>
		<path class="st1" d="M1566-20c-229.5,117.5-112.5,197.5-108.5,206.5s144.94,141-146.03,226.5S960.5,550.5,968.5,659.5
			s146,190,145,279s-68,149-80,157s-221,10-221,10s155-32,167-112s24-159-32-223s-244-359-61-415s292,60,377-21
			s80.94-159,47.97-213.5S1298.5,0.5,1332.5-5.5"/>
	</g>
</g>
</svg>
